<?xml version="1.0" encoding="UTF-8"?>
<svg version="1.1" xmlns="http://www.w3.org/2000/svg" width="500" height="500">
<path d="M0 0 C165 0 330 0 500 0 C500 165 500 330 500 500 C335 500 170 500 0 500 C0 335 0 170 0 0 Z " fill="#F3FEED" transform="translate(0,0)"/>
<path d="M0 0 C1.56316411 1.31979725 3.05517594 2.72370442 4.51953125 4.15234375 C3.85953125 4.48234375 3.19953125 4.81234375 2.51953125 5.15234375 C0.12109375 4.078125 0.12109375 4.078125 -2.85546875 2.46484375 C-21.15266954 -6.99164224 -39.51815454 -8.32822164 -59.08984375 -2.39453125 C-77.40128224 3.71976023 -90.96010012 17.56142303 -99.62304688 34.37402344 C-102.91654498 41.20484354 -105.17953324 48.55372212 -105.48046875 56.15234375 C-105.53203125 57.32539063 -105.58359375 58.4984375 -105.63671875 59.70703125 C-106.20756963 79.05437573 -100.74755247 97.14117209 -88.04296875 112.00390625 C-78.89194391 121.6603656 -68.28357634 128.45244714 -55.48046875 132.15234375 C-54.25199219 132.50941406 -53.02351563 132.86648438 -51.7578125 133.234375 C-47.11716678 134.36743558 -42.61588796 134.49664748 -37.85546875 134.46484375 C-36.97955078 134.4599292 -36.10363281 134.45501465 -35.20117188 134.44995117 C-21.09060707 134.1979768 -6.9321028 130.74106929 4.51953125 122.15234375 C5.17953125 122.48234375 5.83953125 122.81234375 6.51953125 123.15234375 C-8.87486012 137.20809239 -27.55662585 143.75261371 -48.23046875 143.65234375 C-48.89244263 143.65124603 -49.5544165 143.65014832 -50.2364502 143.64901733 C-60.63370784 143.5994991 -69.10546679 142.71383664 -78.48046875 138.15234375 C-79.37765625 137.76820313 -80.27484375 137.3840625 -81.19921875 136.98828125 C-100.35922755 128.29531429 -115.08775193 111.72167125 -122.484375 92.16796875 C-129.24209984 71.70928805 -128.60098226 49.88660695 -120.1640625 30.05859375 C-110.86169036 11.61286437 -94.65926169 -4.01794587 -75.09375 -11.0390625 C-49.60733577 -18.92499336 -21.73750805 -16.19187608 0 0 Z " fill="#67A249" transform="translate(297.48046875,132.84765625)"/>
<path d="M0 0 C5.94 0 11.88 0 18 0 C16.90987395 6.12147704 15.68095324 11.3943705 13 17 C12.34 16.67 11.68 16.34 11 16 C11 15.34 11 14.68 11 14 C5.56345229 16.96798405 0.61086364 20.33252167 -4.375 24 C-5.95918666 25.1529606 -7.54383416 26.30528822 -9.12890625 27.45703125 C-9.93215332 28.04178223 -10.73540039 28.6265332 -11.56298828 29.22900391 C-15.46704574 32.06611399 -19.38357585 34.88494213 -23.3125 37.6875 C-24.01101074 38.19216797 -24.70952148 38.69683594 -25.42919922 39.21679688 C-26.08807129 39.68537109 -26.74694336 40.15394531 -27.42578125 40.63671875 C-27.99723877 41.04623779 -28.56869629 41.45575684 -29.1574707 41.87768555 C-31 43 -31 43 -36 45 C-42.93 35.595 -42.93 35.595 -50 26 C-57.89583412 30.24458135 -65.63433956 34.68700222 -73.3125 39.3125 C-74.40248291 39.96605469 -75.49246582 40.61960938 -76.61547852 41.29296875 C-83.73565601 45.57979533 -90.74011536 49.99575911 -97.62109375 54.65625 C-98.40613281 55.0996875 -99.19117188 55.543125 -100 56 C-100.66 55.67 -101.32 55.34 -102 55 C-94.8687645 48.87566652 -87.66004902 42.89642838 -80.23608398 37.12988281 C-76.21731337 33.99409558 -72.30726876 30.75486264 -68.4375 27.4375 C-63.97596207 23.62301873 -59.44777709 19.9144145 -54.8125 16.3125 C-54.25941162 15.87800537 -53.70632324 15.44351074 -53.13647461 14.99584961 C-49.23972804 12 -49.23972804 12 -47 12 C-45.71899414 13.45288086 -45.71899414 13.45288086 -44.28515625 15.46484375 C-43.76373047 16.18220703 -43.24230469 16.89957031 -42.70507812 17.63867188 C-41.61319394 19.16679041 -40.52204355 20.69543353 -39.43164062 22.22460938 C-38.90892578 22.94326172 -38.38621094 23.66191406 -37.84765625 24.40234375 C-37.37336182 25.06741943 -36.89906738 25.73249512 -36.41040039 26.41772461 C-34.98444618 28.28171905 -34.98444618 28.28171905 -32 29 C-30.14877147 28.10581991 -30.14877147 28.10581991 -28.296875 26.640625 C-27.57032715 26.10655029 -26.8437793 25.57247559 -26.09521484 25.0222168 C-25.32129395 24.43738525 -24.54737305 23.85255371 -23.75 23.25 C-22.95674316 22.66323486 -22.16348633 22.07646973 -21.34619141 21.47192383 C-19.70397572 20.25639594 -18.06484384 19.03669148 -16.42871094 17.81298828 C-13.4258663 15.5714197 -10.40201769 13.35950732 -7.37597656 11.14941406 C-4.57920218 9.10608988 -1.789596 7.05310974 1 5 C0.505 2.525 0.505 2.525 0 0 Z " fill="#68A34B" transform="translate(311,177)"/>
<path d="M0 0 C1.65 1.65 3.3 3.3 5 5 C5.88300781 5.79792969 6.76601563 6.59585938 7.67578125 7.41796875 C14.95841473 15.06743117 15.82043457 21.30380551 15.625 31.8125 C15.49391125 35.88232278 15.29557061 39.93885975 15 44 C4.41198644 48.68315984 -0.38216173 48 -14 48 C-14 34.8 -14 21.6 -14 8 C-9.38 5.36 -4.76 2.72 0 0 Z " fill="#8C8C8D" transform="translate(259,207)"/>
<path d="M0 0 C8 0 8 0 10.20703125 2.046875 C10.73683594 2.93890625 11.26664063 3.8309375 11.8125 4.75 C12.35519531 5.63171875 12.89789063 6.5134375 13.45703125 7.421875 C13.96621094 8.27265625 14.47539062 9.1234375 15 10 C15.98256795 11.34623103 16.97655288 12.68457848 18 14 C18.54527344 12.989375 19.09054688 11.97875 19.65234375 10.9375 C20.41230723 9.62398288 21.17412461 8.31153716 21.9375 7 C22.29134766 6.33226562 22.64519531 5.66453125 23.00976562 4.9765625 C24.15234375 3.0625 24.15234375 3.0625 27 0 C29.97 0 32.94 0 36 0 C36 14.19 36 28.38 36 43 C33.03 43 30.06 43 27 43 C26.505 30.13 26.505 30.13 26 17 C24.02 19.97 22.04 22.94 20 26 C18.35 26 16.7 26 15 26 C13.02 22.7 11.04 19.4 9 16 C8.67 24.91 8.34 33.82 8 43 C5.36 43 2.72 43 0 43 C0 28.81 0 14.62 0 0 Z " fill="#67A24A" transform="translate(182,295)"/>
<path d="M0 0 C9.57 0 19.14 0 29 0 C30.63708994 18.24185934 30.63708994 18.24185934 27.78710938 23.04345703 C24.61940577 26.59666419 20.80892796 29.22716082 16.82568359 31.79492188 C14.20211529 33.52665939 11.84103089 35.54077054 9.4375 37.5625 C6.34749692 40.05271046 3.45841036 41.92495379 0 44 C0 29.48 0 14.96 0 0 Z " fill="#C9CBCA" transform="translate(211,182)"/>
<path d="M0 0 C0 13.53 0 27.06 0 41 C-11.3125 41.375 -11.3125 41.375 -14.8684082 41.47802734 C-15.79484131 41.5136377 -16.72127441 41.54924805 -17.67578125 41.5859375 C-18.62364502 41.6173584 -19.57150879 41.6487793 -20.5480957 41.68115234 C-23.2530269 41.8489051 -23.2530269 41.8489051 -26 44 C-26.99 44 -27.98 44 -29 44 C-31.84931401 24.08159033 -31.84931401 24.08159033 -27.39453125 17.70019531 C-23.1998288 13.72721285 -18.31329555 10.92405838 -13.23583984 8.22070312 C-10.26801501 6.60035762 -7.65212402 4.70068102 -4.9375 2.6875 C-1.13075061 0 -1.13075061 0 0 0 Z " fill="#615F5F" transform="translate(308,204)"/>
<path d="M0 0 C9.57 0 19.14 0 29 0 C29 3.63 29 7.26 29 11 C28.01 11.33 27.02 11.66 26 12 C26.99 13.32 27.98 14.64 29 16 C27.56673886 19.47126783 25.89674713 21.10802612 22.859375 23.27734375 C22.03566406 23.87353516 21.21195312 24.46972656 20.36328125 25.08398438 C19.50089844 25.69564453 18.63851563 26.30730469 17.75 26.9375 C16.05602808 28.15318913 14.3632923 29.37060282 12.671875 30.58984375 C11.4662793 31.45585205 11.4662793 31.45585205 10.23632812 32.33935547 C8.25817301 33.80828681 6.38056855 35.33309072 4.515625 36.94140625 C2 39 2 39 0 39 C0 26.13 0 13.26 0 0 Z " fill="#626060" transform="translate(279,163)"/>
<path d="M0 0 C2.70670588 2.06119215 5.02464124 4.35330826 7.375 6.80859375 C-6.03676045 7.47338615 -15.98693951 7.93282704 -27.625 0.80859375 C-34.729697 -2.37104933 -42.02815825 -2.48613033 -49.6875 -2.56640625 C-50.60966309 -2.5804248 -51.53182617 -2.59444336 -52.48193359 -2.60888672 C-61.07357248 -2.54919067 -68.58311676 -0.60413401 -76.125 3.55859375 C-78.59375 4.91796875 -78.59375 4.91796875 -80.625 5.80859375 C-81.285 5.47859375 -81.945 5.14859375 -82.625 4.80859375 C-58.80743836 -14.94597208 -26.13067993 -16.21502013 0 0 Z " fill="#AFD02B" transform="translate(300.625,139.19140625)"/>
<path d="M0 0 C2.64 0 5.28 0 8 0 C8.33 7.92 8.66 15.84 9 24 C11.64 24 14.28 24 17 24 C17.33 16.08 17.66 8.16 18 0 C20.97 0 23.94 0 27 0 C27 10.56 27 21.12 27 32 C24.03 32 21.06 32 18 32 C18 31.34 18 30.68 18 30 C17.01 30.66 16.02 31.32 15 32 C11.6084154 32.5461026 8.39236018 32.54104628 5 32 C1.65374976 29.47323961 0.32022153 27.96066458 -1 24 C-1.09354378 22.23890604 -1.13069971 20.47451282 -1.1328125 18.7109375 C-1.13410156 17.68742187 -1.13539063 16.66390625 -1.13671875 15.609375 C-1.13285156 14.54203125 -1.12898437 13.4746875 -1.125 12.375 C-1.12886719 11.29992187 -1.13273438 10.22484375 -1.13671875 9.1171875 C-1.13542969 8.09625 -1.13414062 7.0753125 -1.1328125 6.0234375 C-1.13168457 5.08419434 -1.13055664 4.14495117 -1.12939453 3.17724609 C-1 1 -1 1 0 0 Z " fill="#6BA54E" transform="translate(225,306)"/>
<path d="M0 0 C3.32175536 1.2690509 6.38688682 2.72635389 9.5 4.4375 C23.66731696 11.51069517 39.87766801 12.00667794 54.77734375 7.08203125 C60.38095325 5.1281068 60.38095325 5.1281068 65.62109375 2.3828125 C70.539301 0.37004329 75.12010918 0.68028017 80.375 0.8125 C81.90833984 0.83280273 81.90833984 0.83280273 83.47265625 0.85351562 C85.98232049 0.88869783 88.4908809 0.93792461 91 1 C82.66395363 9.94372077 71.9336831 14.92532233 60 17 C59.04996094 17.18175781 58.09992188 17.36351562 57.12109375 17.55078125 C38.36866253 20.24981703 19.89502557 16.16018585 4.4375 5.1796875 C2.5 3.5625 2.5 3.5625 0 1 C0 0.67 0 0.34 0 0 Z " fill="#ADCF26" transform="translate(216,248)"/>
<path d="M0 0 C0 11.55 0 23.1 0 35 C-11.35728535 33.37753066 -20.96290166 28.21181787 -29 20 C-28.6286696 17.57371885 -28.39568936 16.33340669 -26.48461914 14.72314453 C-25.51963501 14.18343018 -25.51963501 14.18343018 -24.53515625 13.6328125 C-23.82166016 13.22466309 -23.10816406 12.81651367 -22.37304688 12.39599609 C-21.61056641 11.97656738 -20.84808594 11.55713867 -20.0625 11.125 C-18.51150382 10.24517044 -16.96072182 9.36496322 -15.41015625 8.484375 C-14.65492676 8.06091797 -13.89969727 7.63746094 -13.12158203 7.20117188 C-9.59347303 5.20366942 -6.14595187 3.07573408 -2.6875 0.9609375 C-1 0 -1 0 0 0 Z " fill="#C9CACA" transform="translate(240,219)"/>
<path d="M0 0 C9.57 0 19.14 0 29 0 C29 8.25 29 16.5 29 25 C26.23554753 22.23554753 24.01873029 19.84372312 21.75 16.75 C21.22921875 16.04359375 20.7084375 15.3371875 20.171875 14.609375 C19.78515625 14.07828125 19.3984375 13.5471875 19 13 C15.31304253 14.60000041 12.55641347 16.91380399 9.5 19.5 C6.32160299 22.18941285 3.75055973 24.12472013 0 26 C0 17.42 0 8.84 0 0 Z " fill="#8F9090" transform="translate(245,172)"/>
<path d="M0 0 C2.64 0 5.28 0 8 0 C8 2.64 8 5.28 8 8 C10.31 8 12.62 8 15 8 C15 10.31 15 12.62 15 15 C12.69 15 10.38 15 8 15 C8.33 20.28 8.66 25.56 9 31 C10.65 31.33 12.3 31.66 14 32 C14 34.64 14 37.28 14 40 C12.41820385 40.10867302 10.83422847 40.18589827 9.25 40.25 C8.36828125 40.29640625 7.4865625 40.3428125 6.578125 40.390625 C4 40 4 40 1.6875 38.65625 C-1.00673681 34.41532169 -0.41982227 30.15525088 -0.25 25.25 C-0.23195313 24.26644531 -0.21390625 23.28289062 -0.1953125 22.26953125 C-0.14824126 19.84536217 -0.08250742 17.42317941 0 15 C-1.65 15 -3.3 15 -5 15 C-5 12.69 -5 10.38 -5 8 C-3.35 8 -1.7 8 0 8 C0 5.36 0 2.72 0 0 Z " fill="#68A34B" transform="translate(277,298)"/>
<path d="M0 0 C2.64 0 5.28 0 8 0 C8 14.19 8 28.38 8 43 C5.36 43 2.72 43 0 43 C0 28.81 0 14.62 0 0 Z " fill="#65A147" transform="translate(259,295)"/>
<path d="M0 0 C2.64 0 5.28 0 8 0 C8 10.56 8 21.12 8 32 C5.03 32 2.06 32 -1 32 C-1.02465504 27.60343827 -1.04283842 23.2069128 -1.05493164 18.81030273 C-1.05997121 17.31355082 -1.06680287 15.81680384 -1.07543945 14.32006836 C-1.08752159 12.17300193 -1.09323191 10.02600038 -1.09765625 7.87890625 C-1.10289307 6.5854126 -1.10812988 5.29191895 -1.11352539 3.95922852 C-1 1 -1 1 0 0 Z " fill="#6CA650" transform="translate(298,306)"/>
<path d="M0 0 C4.85295501 0.69327929 6.98833976 3.86932091 10.125 7.375 C23.23230643 19.34254065 39.8800491 22.59361956 57.109375 22.18359375 C71.05614411 21.52546308 86.78514337 17.21485663 97 7 C90.4 6.67 83.8 6.34 77 6 C77 5.67 77 5.34 77 5 C80.62498334 4.97106068 84.24993713 4.95322208 87.875 4.9375 C89.42380859 4.92493164 89.42380859 4.92493164 91.00390625 4.91210938 C91.99003906 4.90888672 92.97617187 4.90566406 93.9921875 4.90234375 C95.35899658 4.89448853 95.35899658 4.89448853 96.75341797 4.88647461 C99 5 99 5 101 6 C98.87074684 10.56268534 96.90943411 12.11774049 92.2421875 14.015625 C89.50615728 15.216809 86.89588476 16.61176956 84.25 18 C67.77035622 26.32242662 47.4855113 27.89157405 29.88916016 22.26220703 C19.28620562 18.54094136 6.41755784 11.87300953 0.7265625 1.73046875 C0.48679688 1.15941406 0.24703125 0.58835938 0 0 Z " fill="#E6F5D2" transform="translate(209,243)"/>
<path d="M0 0 C0.81984375 0.35191406 1.6396875 0.70382813 2.484375 1.06640625 C7.37227484 3.26228607 9.91642471 5.76008397 13 10 C8.93778644 9.45646438 6.69909729 8.2698369 3.5 5.75 C-9.63248418 -3.75838617 -27.15131087 -7.88588595 -43.15136719 -5.70703125 C-56.64388872 -3.52571095 -71.65830209 0.82254744 -80.375 12.0625 C-83.48970614 15.54800449 -85.66285515 16.46924299 -90 18 C-85.5769222 7.49814684 -71.86138418 -0.15935323 -61.8203125 -4.31640625 C-58.90028962 -5.32318259 -55.98108877 -6.19430033 -53 -7 C-52.28972656 -7.22429687 -51.57945312 -7.44859375 -50.84765625 -7.6796875 C-33.35025519 -12.58298991 -15.86760952 -7.36710442 0 0 Z " fill="#E0F2D0" transform="translate(297,135)"/>
<path d="M0 0 C6.0546875 -0.1953125 6.0546875 -0.1953125 8 0 C8.66 0.66 9.32 1.32 10 2 C9.77289324 4.01151705 9.53928901 6.02344239 9.2265625 8.0234375 C8.97286301 10.23674688 9.2178162 11.91417653 10 14 C7 13 7 13 5.9375 11 C5.628125 10.34 5.31875 9.68 5 9 C4.34 8.67 3.68 8.34 3 8 C3 9.98 3 11.96 3 14 C2.01 14 1.02 14 0 14 C0 9.38 0 4.76 0 0 Z " fill="#7E7F7B" transform="translate(266,356)"/>
<path d="M0 0 C1.890625 0.23046875 1.890625 0.23046875 4 1 C5.046875 2.92578125 5.046875 2.92578125 5.75 5.3125 C5.99234375 6.09238281 6.2346875 6.87226563 6.484375 7.67578125 C7 10 7 10 7 14 C6.34 14 5.68 14 5 14 C5 13.34 5 12.68 5 12 C2.03 12.66 -0.94 13.32 -4 14 C-2 4.42857143 -2 4.42857143 0 0 Z " fill="#72716F" transform="translate(253,356)"/>
<path d="M0 0 C3 1 3 1 5 4 C5.6496875 3.01 5.6496875 3.01 6.3125 2 C6.869375 1.34 7.42625 0.68 8 0 C8.99 0 9.98 0 11 0 C11 4.62 11 9.24 11 14 C10.01 14 9.02 14 8 14 C7.67 11.69 7.34 9.38 7 7 C5.68 7 4.36 7 3 7 C2.67 9.31 2.34 11.62 2 14 C1.34 14 0.68 14 0 14 C0 9.38 0 4.76 0 0 Z " fill="#787876" transform="translate(232,356)"/>
<path d="M0 0 C3.625 0.375 3.625 0.375 7 1 C7.625 4.375 7.625 4.375 8 8 C6 10 6 10 3 10.25 C0 10 0 10 -2 8 C-2.25 5 -2.25 5 -2 2 C-1.34 1.34 -0.68 0.68 0 0 Z " fill="#69A44C" transform="translate(299,293)"/>
<path d="M0 0 C0.99 0 1.98 0 3 0 C3.33 1.32 3.66 2.64 4 4 C4.61875 3.34 5.2375 2.68 5.875 2 C8 0 8 0 10 0 C9.690625 0.598125 9.38125 1.19625 9.0625 1.8125 C7.89790296 4.08956772 7.89790296 4.08956772 7 7 C7.7460698 8.8802101 7.7460698 8.8802101 8.9375 10.6875 C9.618125 11.780625 10.29875 12.87375 11 14 C8.11424181 13.60196439 7.17810487 13.20990931 5.25 10.9375 C4.8375 10.298125 4.425 9.65875 4 9 C3.67 10.65 3.34 12.3 3 14 C2.01 14 1.02 14 0 14 C0 9.38 0 4.76 0 0 Z " fill="#7B7B78" transform="translate(282,356)"/>
<path d="M0 0 C4.17799643 2.08899822 4.92391901 3.05544612 7 7 C7.33 4.69 7.66 2.38 8 0 C8.66 0 9.32 0 10 0 C10 4.62 10 9.24 10 14 C5.47653527 11.73826764 4.94171334 10.46594067 3 6 C2.67 8.64 2.34 11.28 2 14 C1.34 14 0.68 14 0 14 C0 9.38 0 4.76 0 0 Z " fill="#656363" transform="translate(339,356)"/>
<path d="M0 0 C3.3 0 6.6 0 10 0 C10 0.66 10 1.32 10 2 C7.36 2 4.72 2 2 2 C2 3.32 2 4.64 2 6 C3.65 6 5.3 6 7 6 C7 6.66 7 7.32 7 8 C5.68 8 4.36 8 3 8 C3 9.32 3 10.64 3 12 C5.31 12 7.62 12 10 12 C10 12.66 10 13.32 10 14 C6.7 14 3.4 14 0 14 C0 9.38 0 4.76 0 0 Z " fill="#6E6E6C" transform="translate(161,356)"/>
<path d="M0 0 C2.5 0.25 2.5 0.25 4.5 2.25 C4.5 3.24 4.5 4.23 4.5 5.25 C3.84 5.25 3.18 5.25 2.5 5.25 C2.17 4.59 1.84 3.93 1.5 3.25 C0.51 3.25 -0.48 3.25 -1.5 3.25 C-1.5 5.89 -1.5 8.53 -1.5 11.25 C-0.51 11.25 0.48 11.25 1.5 11.25 C1.83 10.26 2.16 9.27 2.5 8.25 C1.84 7.92 1.18 7.59 0.5 7.25 C1.82 7.25 3.14 7.25 4.5 7.25 C4.5 9.23 4.5 11.21 4.5 13.25 C1.125 13.875 1.125 13.875 -2.5 14.25 C-4.5 12.25 -4.5 12.25 -4.765625 9.9375 C-4.76046875 9.050625 -4.7553125 8.16375 -4.75 7.25 C-4.75515625 6.363125 -4.7603125 5.47625 -4.765625 4.5625 C-4.37662358 1.17589938 -3.36011494 0.33601149 0 0 Z " fill="#6A6968" transform="translate(360.5,355.75)"/>
<path d="M0 0 C0.99 0 1.98 0 3 0 C3.66 2.31 4.32 4.62 5 7 C6.20628008 4.66785852 7.1654738 2.50357861 8 0 C8.99 0 9.98 0 11 0 C9.85248597 4.7539867 8.61737483 9.37892907 7 14 C6.01 14 5.02 14 4 14 C3.32968281 12.0429132 2.66385317 10.08428887 2 8.125 C1.62875 7.03445313 1.2575 5.94390625 0.875 4.8203125 C0 2 0 2 0 0 Z " fill="#696866" transform="translate(176,356)"/>
<path d="M0 0 C2.97 0 5.94 0 9 0 C9 0.66 9 1.32 9 2 C6.69 2 4.38 2 2 2 C2 3.32 2 4.64 2 6 C3.65 6 5.3 6 7 6 C7 6.66 7 7.32 7 8 C5.35 8 3.7 8 2 8 C2 9.32 2 10.64 2 12 C4.31 12 6.62 12 9 12 C9 12.66 9 13.32 9 14 C6.03 14 3.06 14 0 14 C0 9.38 0 4.76 0 0 Z " fill="#656362" transform="translate(299,356)"/>
<path d="M0 0 C2.97 0 5.94 0 9 0 C9 0.66 9 1.32 9 2 C6.69 2 4.38 2 2 2 C2 3.32 2 4.64 2 6 C3.65 6 5.3 6 7 6 C7 6.66 7 7.32 7 8 C5.35 8 3.7 8 2 8 C2 9.32 2 10.64 2 12 C4.31 12 6.62 12 9 12 C9 12.66 9 13.32 9 14 C6.03 14 3.06 14 0 14 C0 9.38 0 4.76 0 0 Z " fill="#636261" transform="translate(193,356)"/>
<path d="M0 0 C0.99 0 1.98 0 3 0 C3 3.96 3 7.92 3 12 C5.31 12 7.62 12 10 12 C10 12.66 10 13.32 10 14 C6.7 14 3.4 14 0 14 C0 9.38 0 4.76 0 0 Z " fill="#7A7B77" transform="translate(208,356)"/>
<path d="M0 0 C3.3 0 6.6 0 10 0 C10 0.66 10 1.32 10 2 C8.68 2 7.36 2 6 2 C6 5.96 6 9.92 6 14 C5.01 14 4.02 14 3 14 C3 10.04 3 6.08 3 2 C2.01 2 1.02 2 0 2 C0 1.34 0 0.68 0 0 Z " fill="#7B7B78" transform="translate(314,356)"/>
<path d="M0 0 C0.99 0.33 1.98 0.66 3 1 C-1.25424315 6.37060483 -5.30600165 10.76866722 -12 13 C-10.44997253 9.11602311 -7.99523379 6.97020381 -4.875 4.25 C-3.96492187 3.45078125 -3.05484375 2.6515625 -2.1171875 1.828125 C-1.06917969 0.92320312 -1.06917969 0.92320312 0 0 Z " fill="#E5F5D7" transform="translate(219,140)"/>
<path d="M0 0 C1.9375 0.1875 1.9375 0.1875 4 1 C5.25 3.0625 5.25 3.0625 6 5 C5.01 5.495 5.01 5.495 4 6 C3.34786708 8.02463255 3.34786708 8.02463255 3 10 C1.68 9.67 0.36 9.34 -1 9 C-1.09765625 2.84765625 -1.09765625 2.84765625 -1 1 C-0.67 0.67 -0.34 0.34 0 0 Z " fill="#E5EEDF" transform="translate(359,358)"/>
<path d="M0 0 C0.33 0.99 0.66 1.98 1 3 C4.465 2.505 4.465 2.505 8 2 C8.33 4.97 8.66 7.94 9 11 C6 10 6 10 4.9375 8 C4.628125 7.34 4.31875 6.68 4 6 C3.34 5.67 2.68 5.34 2 5 C2 6.98 2 8.96 2 11 C1.34 11 0.68 11 0 11 C0 7.37 0 3.74 0 0 Z " fill="#6B6A68" transform="translate(267,359)"/>
<path d="M0 0 C0.33 0.66 0.66 1.32 1 2 C1.99 2.3403125 1.99 2.3403125 3 2.6875 C3.66 3.120625 4.32 3.55375 5 4 C5.75 7.625 5.75 7.625 6 11 C5.34 11 4.68 11 4 11 C4 10.34 4 9.68 4 9 C2.02 9 0.04 9 -2 9 C-1.34 6.03 -0.68 3.06 0 0 Z " fill="#9B9E97" transform="translate(254,359)"/>
<path d="M0 0 C3.62498334 -0.02893932 7.24993713 -0.04677792 10.875 -0.0625 C12.42380859 -0.07506836 12.42380859 -0.07506836 14.00390625 -0.08789062 C14.99003906 -0.09111328 15.97617187 -0.09433594 16.9921875 -0.09765625 C18.35899658 -0.10551147 18.35899658 -0.10551147 19.75341797 -0.11352539 C22 0 22 0 24 1 C22.84826645 3.46800047 21.95216435 5.04783565 20 7 C17.875 6.625 17.875 6.625 16 6 C17.32 4.68 18.64 3.36 20 2 C13.4 1.67 6.8 1.34 0 1 C0 0.67 0 0.34 0 0 Z " fill="#E1F2BA" transform="translate(286,248)"/>
<path d="M0 0 C0.66 0 1.32 0 2 0 C2 3.96 2 7.92 2 12 C4.31 12 6.62 12 9 12 C9 12.66 9 13.32 9 14 C6.03 14 3.06 14 0 14 C0 9.38 0 4.76 0 0 Z " fill="#615F5F" transform="translate(146,356)"/>
<path d="M0 0 C0.99 0.33 1.98 0.66 3 1 C3.33 1.99 3.66 2.98 4 4 C3.67 4.33 3.34 4.66 3 5 C2.76807135 6.51469448 2.58784762 8.03754562 2.4375 9.5625 C2.35371094 10.38878906 2.26992187 11.21507812 2.18359375 12.06640625 C2.12300781 12.70449219 2.06242188 13.34257812 2 14 C1.34 14 0.68 14 0 14 C0 9.38 0 4.76 0 0 Z " fill="#646261" transform="translate(232,356)"/>
<path d="M0 0 C2.125 -0.4375 2.125 -0.4375 5 0 C7.276147 2.12689146 9.1458722 4.5023433 11 7 C5.95904225 6.55520961 3.58884285 4.33845847 0 1 C0 0.67 0 0.34 0 0 Z " fill="#D0E7BF" transform="translate(299,138)"/>
<path d="M0 0 C0.66 0.33 1.32 0.66 2 1 C1 4 1 4 -1.21484375 5.421875 C-2.56255859 6.07929688 -2.56255859 6.07929688 -3.9375 6.75 C-4.83339844 7.19859375 -5.72929687 7.6471875 -6.65234375 8.109375 C-7.42707031 8.40328125 -8.20179688 8.6971875 -9 9 C-9.66 8.67 -10.32 8.34 -11 8 C-9.72992786 7.0406581 -8.45891081 6.08256706 -7.1875 5.125 C-6.47980469 4.59132812 -5.77210938 4.05765625 -5.04296875 3.5078125 C-3.39543703 2.29185219 -1.70375789 1.13583859 0 0 Z " fill="#B3D337" transform="translate(229,136)"/>
<path d="M0 0 C0.99 0 1.98 0 3 0 C1.25 7.625 1.25 7.625 -1 11 C-2.60080151 6.99799622 -1.29279692 3.95443764 0 0 Z " fill="#7B7C78" transform="translate(184,356)"/>
<path d="M0 0 C0.59425781 0.20109375 1.18851563 0.4021875 1.80078125 0.609375 C0.34628724 1.6149511 -1.11294318 2.61367935 -2.57421875 3.609375 C-3.79238281 4.4446875 -3.79238281 4.4446875 -5.03515625 5.296875 C-7.19921875 6.609375 -7.19921875 6.609375 -9.19921875 6.609375 C-7.8496834 2.56076896 -4.56268351 -0.81042336 0 0 Z " fill="#E9F7DA" transform="translate(230.19921875,134.390625)"/>
<path d="M0 0 C0.99 0.33 1.98 0.66 3 1 C0.3765992 3.91488977 -2.71816394 5.88503898 -6 8 C-6.66 7.67 -7.32 7.34 -8 7 C-6.74057614 5.80040625 -5.46704714 4.61560557 -4.1875 3.4375 C-3.12595703 2.44556641 -3.12595703 2.44556641 -2.04296875 1.43359375 C-1.36878906 0.96050781 -0.69460937 0.48742187 0 0 Z " fill="#7FB265" transform="translate(217,225)"/>
<path d="M0 0 C0.33 1.32 0.66 2.64 1 4 C3.31 4 5.62 4 8 4 C8 4.66 8 5.32 8 6 C5.03 6 2.06 6 -1 6 C-0.67 4.02 -0.34 2.04 0 0 Z " fill="#747471" transform="translate(163,364)"/>
<path d="M0 0 C0.66 0.33 1.32 0.66 2 1 C0.90398831 2.00893131 -0.20213918 3.00688225 -1.3125 4 C-2.23482422 4.8353125 -2.23482422 4.8353125 -3.17578125 5.6875 C-5 7 -5 7 -8 7 C-8 6.34 -8 5.68 -8 5 C-6.3203125 3.67578125 -6.3203125 3.67578125 -4.125 2.3125 C-3.40570313 1.85488281 -2.68640625 1.39726562 -1.9453125 0.92578125 C-1.30335938 0.62027344 -0.66140625 0.31476563 0 0 Z " fill="#78AD5D" transform="translate(302,255)"/>
<path d="M0 0 C3.59391114 1.33488128 6.75490696 2.96022723 10 5 C9.67 5.99 9.34 6.98 9 8 C7.49712782 6.85793642 5.99776716 5.71125043 4.5 4.5625 C3.6646875 3.92441406 2.829375 3.28632813 1.96875 2.62890625 C1.3190625 2.09136719 0.669375 1.55382812 0 1 C0 0.67 0 0.34 0 0 Z " fill="#B5D43B" transform="translate(216,248)"/>
<path d="M0 0 C0.66 0.33 1.32 0.66 2 1 C0.92456217 1.98783194 -0.16073217 2.96493943 -1.25 3.9375 C-2.15492188 4.75541016 -2.15492188 4.75541016 -3.078125 5.58984375 C-5.08467305 7.06212799 -6.57002449 7.57529189 -9 8 C-8.3125 6.125 -8.3125 6.125 -7 4 C-4.5 2.875 -4.5 2.875 -2 2 C-1.34 1.34 -0.68 0.68 0 0 Z " fill="#D7ECA8" transform="translate(216,145)"/>
<path d="M0 0 C1.44197868 2.88395737 1.58833581 5.82430479 2 9 C1.01 8.67 0.02 8.34 -1 8 C-1.75 6.0625 -1.75 6.0625 -2 4 C-1.67 3.34 -1.34 2.68 -1 2 C-2.32 1.67 -3.64 1.34 -5 1 C-3.35 0.67 -1.7 0.34 0 0 Z " fill="#71706E" transform="translate(274,361)"/>
<path d="M0 0 C0 3 0 3 -1.25 4.75 C-3 6 -3 6 -5.1875 5.6875 C-5.785625 5.460625 -6.38375 5.23375 -7 5 C-4.63707344 2.47411298 -3.33537489 1.11179163 0 0 Z " fill="#CAE3BA" transform="translate(309,249)"/>
<path d="M0 0 C0.99 0 1.98 0 3 0 C3.625 2.875 3.625 2.875 4 6 C3.34 6.66 2.68 7.32 2 8 C1.34 5.36 0.68 2.72 0 0 Z " fill="#7E7E7B" transform="translate(176,356)"/>
<path d="M0 0 C2.475 0.495 2.475 0.495 5 1 C5 1.99 5 2.98 5 4 C3.35 4 1.7 4 0 4 C0 2.68 0 1.36 0 0 Z " fill="#E5EEDF" transform="translate(269,358)"/>
<path d="M0 0 C3.875 4.75 3.875 4.75 5 7 C3.125 6.8125 3.125 6.8125 1 6 C-0.25 3.4375 -0.25 3.4375 -1 1 C-0.67 0.67 -0.34 0.34 0 0 Z " fill="#72716F" transform="translate(288,363)"/>
</svg>
