<?xml version="1.0" encoding="UTF-8"?>
<svg version="1.1" xmlns="http://www.w3.org/2000/svg" width="500" height="500">
<path d="M0 0 C165 0 330 0 500 0 C500 165 500 330 500 500 C335 500 170 500 0 500 C0 335 0 170 0 0 Z " fill="#FEFEFE" transform="translate(0,0)"/>
<path d="M0 0 C11.49693645 -0.40152281 17.99609356 2.89277541 26.7421875 10.15625 C29.40228933 12.64920001 31.16752906 15.01269489 32.91796875 18.1953125 C33.33304687 17.84339844 33.748125 17.49148437 34.17578125 17.12890625 C46.06813841 7.60009288 56.54150194 3.36280433 71.74560547 4.87207031 C81.86531823 6.3778581 90.90000417 12.16110125 97.23046875 20.0703125 C102.79076734 28.11532218 103.90679191 35.43504627 102.91796875 45.1953125 C99.08494623 63.87110307 84.08031721 82.44173856 68.7890625 92.97363281 C61.79766177 97.53847744 54.39064734 101.48400816 46.91796875 105.1953125 C70.38139815 105.523392 70.38139815 105.523392 93.79296875 104.1953125 C104.63861799 103.18378756 115.40934022 102.99809088 126.29296875 103.0078125 C127.49442535 103.00672485 127.49442535 103.00672485 128.72015381 103.00561523 C131.00232849 103.00585041 133.28427053 103.01453831 135.56640625 103.02734375 C136.25061646 103.02853714 136.93482666 103.02973053 137.63977051 103.03096008 C140.87526706 103.06292766 143.82206361 103.21158987 146.91796875 104.1953125 C146.29118704 107.85703725 145.27345029 111.077212 143.85546875 114.5078125 C143.49324219 115.39082031 143.13101563 116.27382813 142.7578125 117.18359375 C142.48066406 117.84746094 142.20351563 118.51132812 141.91796875 119.1953125 C134.7709206 120.04167748 127.71748464 120.36780461 120.5234375 120.3984375 C119.45539383 120.40413757 118.38735016 120.40983765 117.28694153 120.41571045 C115.03383354 120.42510708 112.78071214 120.43167303 110.52758789 120.43554688 C107.15289948 120.44517715 103.77884094 120.47622165 100.40429688 120.5078125 C86.65071647 120.57438111 73.45443818 119.64877258 59.91796875 117.1953125 C59.20172333 117.06550491 58.48547791 116.93569733 57.74752808 116.80195618 C50.91330565 115.54182681 44.70805841 114.03831573 38.4921875 110.8671875 C30.86709723 108.87702737 21.50930345 112.15532132 13.96875 113.734375 C-3.85545347 117.19087755 -22.56217413 116.43991229 -40.64257812 116.67211914 C-43.63300025 116.71210957 -46.62306352 116.76349328 -49.61328125 116.81640625 C-50.50309692 116.8248204 -51.3929126 116.83323456 -52.30969238 116.84190369 C-61.79173447 117.02564911 -70.27867381 118.73685065 -79.08203125 122.1953125 C-80.07203125 122.1953125 -81.06203125 122.1953125 -82.08203125 122.1953125 C-82.61735948 120.63771907 -83.13468503 119.07393205 -83.64453125 117.5078125 C-83.93457031 116.63769531 -84.22460938 115.76757812 -84.5234375 114.87109375 C-85.14515594 111.89293198 -84.99728815 110.08302143 -84.08203125 107.1953125 C-73.8994463 97.29557713 -55.97181185 98.88783343 -42.7421875 98.78125 C-41.23903924 98.76247557 -39.73590081 98.74289787 -38.23277283 98.7225647 C-34.33185717 98.6718985 -30.43090758 98.63192869 -26.52984619 98.59442139 C-22.52697822 98.55396355 -18.52424329 98.50306506 -14.52148438 98.453125 C-6.7084256 98.35714483 1.10469925 98.27249887 8.91796875 98.1953125 C8.91796875 97.5353125 8.91796875 96.8753125 8.91796875 96.1953125 C7.08136368 94.88955341 5.19544184 93.65308778 3.29296875 92.4453125 C-11.66640109 82.51190831 -23.46849036 68.93970816 -30.08203125 52.1953125 C-30.44683594 51.32648438 -30.81164062 50.45765625 -31.1875 49.5625 C-33.87911805 39.43073249 -34.07479777 25.79127578 -29.58203125 16.1953125 C-25.08925489 8.93287166 -19.27294715 3.8281069 -11.08203125 1.1953125 C-7.3478879 0.4871129 -3.78642633 0.23995097 0 0 Z " fill="#089133" transform="translate(219.08203125,153.8046875)"/>
<path d="M0 0 C2.80617526 1.03659333 4.6545153 2.28920679 6.96484375 4.18359375 C7.74472656 4.82167969 8.52460938 5.45976562 9.328125 6.1171875 C10.41673828 7.01630859 10.41673828 7.01630859 11.52734375 7.93359375 C13.07421875 9.07828125 13.07421875 9.07828125 14.65234375 10.24609375 C18.66505811 13.99710934 21.55866616 18.3332217 24.52734375 22.93359375 C25.11128906 23.69671875 25.69523437 24.45984375 26.296875 25.24609375 C27.73418334 28.38535767 27.44495405 30.40595206 26.86865234 33.75683594 C26.28017953 37.50992862 26.34304051 41.26723201 26.33984375 45.05859375 C26.32147461 46.21681641 26.32147461 46.21681641 26.30273438 47.3984375 C26.29103118 51.97828784 26.78457711 55.62145179 28.52734375 59.93359375 C34.63788615 60.04628818 40.47904889 59.82963743 46.52734375 58.93359375 C46.99573451 49.0323336 46.36314116 40.62956949 43.40234375 31.140625 C42.29672196 27.08832372 41.66212335 24.46395234 43.77734375 20.72265625 C50.41399778 12.51572247 56.98356384 4.90261671 67.97265625 3.65625 C76.34433203 3.33623181 82.93115927 5.77136241 89.52734375 10.93359375 C96.83624287 18.09631489 100.59679008 25.94684956 100.76855469 36.17895508 C100.80139511 45.07050049 100.54282733 52.746962 95.96484375 60.62109375 C92.15733072 64.2333497 87.91471714 67.07032245 83.52734375 69.93359375 C82.76421875 70.44019531 82.00109375 70.94679688 81.21484375 71.46875 C65.02170482 81.7262282 45.1165661 88.52136588 26.52734375 92.93359375 C25.77066406 93.11792969 25.01398438 93.30226563 24.234375 93.4921875 C20.89408232 93.92555881 18.80603154 93.1295742 16.10546875 91.23046875 C13.43274956 88.91411212 10.97450896 86.48630762 8.52734375 83.93359375 C7.82351562 83.22589844 7.1196875 82.51820313 6.39453125 81.7890625 C0.73985943 75.81285052 -3.38856395 69.04429016 -7.47265625 61.93359375 C-7.88515625 61.258125 -8.29765625 60.58265625 -8.72265625 59.88671875 C-15.57866283 47.78158213 -17.96542326 30.99656102 -14.625 17.51171875 C-12.41538922 11.6094364 -7.34378066 -0.19722634 0 0 Z " fill="#FCFEFC" transform="translate(215.47265625,158.06640625)"/>
<path d="M0 0 C11.49693645 -0.40152281 17.99609356 2.89277541 26.7421875 10.15625 C29.40228933 12.64920001 31.16752906 15.01269489 32.91796875 18.1953125 C33.33304687 17.84339844 33.748125 17.49148437 34.17578125 17.12890625 C46.06813841 7.60009288 56.54150194 3.36280433 71.74560547 4.87207031 C81.86531823 6.3778581 90.90000417 12.16110125 97.23046875 20.0703125 C102.77460254 28.09193387 103.95265747 35.45774203 102.91796875 45.1953125 C101.14649102 52.42408451 97.73906612 58.85291727 93.91796875 65.1953125 C93.25796875 64.5353125 92.59796875 63.8753125 91.91796875 63.1953125 C92.12292969 62.65261719 92.32789063 62.10992187 92.5390625 61.55078125 C92.80847656 60.83535156 93.07789063 60.11992187 93.35546875 59.3828125 C93.62230469 58.67511719 93.88914062 57.96742188 94.1640625 57.23828125 C97.35200043 48.59946499 97.57068255 35.7394461 93.96484375 27.08203125 C89.4035685 18.86152399 83.27471776 12.40386034 74.03125 9.62890625 C67.17068905 8.22128654 59.99714441 8.56151953 53.91796875 12.1953125 C48.54323099 16.34851895 42.78248042 20.92066788 39.91796875 27.1953125 C39.99004392 30.72699602 40.76931083 33.63165122 41.66796875 37.0390625 C46.47482359 56.08160282 46.47482359 56.08160282 42.91796875 63.1953125 C36.83055968 65.18755547 31.28824966 65.43028188 24.91796875 65.1953125 C22.12445507 59.6597446 21.50174715 55.41320601 21.66796875 49.2578125 C21.673125 48.49791016 21.67828125 47.73800781 21.68359375 46.95507812 C21.73475574 43.21066033 21.98351115 39.67378177 22.62890625 35.984375 C23.10781045 29.70684702 19.60161688 26.00769754 15.91796875 21.1953125 C13.64723266 18.50787744 13.64723266 18.50787744 10.91796875 16.1953125 C10.1290625 15.46183594 9.34015625 14.72835937 8.52734375 13.97265625 C3.27937475 8.74476473 3.27937475 8.74476473 -3.08203125 5.1953125 C-6.31744033 5.50723285 -7.90372497 6.59895826 -10.01953125 9.0078125 C-18.03306289 19.10119205 -19.4071916 29.7859719 -18.08203125 42.1953125 C-15.36968104 62.81310504 -3.26873291 80.48605014 11.91796875 94.1953125 C14.83561875 96.1404125 16.5433416 96.64807567 19.91796875 97.1953125 C19.91796875 97.5253125 19.91796875 97.8553125 19.91796875 98.1953125 C16.28796875 98.5253125 12.65796875 98.8553125 8.91796875 99.1953125 C8.91796875 98.2053125 8.91796875 97.2153125 8.91796875 96.1953125 C6.46864253 94.29879232 6.46864253 94.29879232 3.29296875 92.3828125 C-11.70396403 82.54120565 -23.47979821 68.91107855 -30.08203125 52.1953125 C-30.44683594 51.32648438 -30.81164062 50.45765625 -31.1875 49.5625 C-33.87911805 39.43073249 -34.07479777 25.79127578 -29.58203125 16.1953125 C-25.08925489 8.93287166 -19.27294715 3.8281069 -11.08203125 1.1953125 C-7.3478879 0.4871129 -3.78642633 0.23995097 0 0 Z " fill="#07C542" transform="translate(219.08203125,153.8046875)"/>
<path d="M0 0 C1.2014566 -0.00108765 1.2014566 -0.00108765 2.42718506 -0.00219727 C4.70935974 -0.00196209 6.99130178 0.00672581 9.2734375 0.01953125 C9.95764771 0.02072464 10.64185791 0.02191803 11.34680176 0.02314758 C14.58229831 0.05511516 17.52909486 0.20377737 20.625 1.1875 C19.99821829 4.84922475 18.98048154 8.0693995 17.5625 11.5 C17.20027344 12.38300781 16.83804688 13.26601563 16.46484375 14.17578125 C16.04912109 15.17158203 16.04912109 15.17158203 15.625 16.1875 C8.47795185 17.03386498 1.42451589 17.35999211 -5.76953125 17.390625 C-7.37159676 17.39917511 -7.37159676 17.39917511 -9.00602722 17.40789795 C-11.25913521 17.41729458 -13.51225661 17.42386053 -15.76538086 17.42773438 C-19.14006927 17.43736465 -22.51412781 17.46840915 -25.88867188 17.5 C-39.64512698 17.5665185 -52.83439771 16.62670089 -66.375 14.1875 C-67.07774048 14.06237534 -67.78048096 13.93725067 -68.5045166 13.80833435 C-77.22979859 12.2342823 -85.204277 9.62137528 -93.375 6.1875 C-93.375 5.8575 -93.375 5.5275 -93.375 5.1875 C-92.17875 4.89875 -90.9825 4.61 -89.75 4.3125 C-86.22773164 3.4350666 -82.80298179 2.38729363 -79.375 1.1875 C-79.375 1.5175 -79.375 1.8475 -79.375 2.1875 C-55.9115706 2.5155795 -55.9115706 2.5155795 -32.5 1.1875 C-21.65435076 0.17597506 -10.88362853 -0.00972162 0 0 Z " fill="#08C543" transform="translate(345.375,256.8125)"/>
<path d="M0 0 C0.66 0.66 1.32 1.32 2 2 C2.33 1.34 2.66 0.68 3 0 C3.99 0 4.98 0 6 0 C6.11618764 3.91641711 6.18724654 7.83239101 6.25 11.75 C6.28351563 12.86117188 6.31703125 13.97234375 6.3515625 15.1171875 C6.36445313 16.18710937 6.37734375 17.25703125 6.390625 18.359375 C6.41157227 19.34389648 6.43251953 20.32841797 6.45410156 21.34277344 C5.87475646 24.73287671 4.62786857 25.86080992 2 28 C-1.12706959 29.5635348 -4.57982443 29.39958487 -8 29 C-8.99 28.34 -9.98 27.68 -11 27 C-11 26.34 -11 25.68 -11 25 C-10.22914063 25.02320313 -9.45828125 25.04640625 -8.6640625 25.0703125 C-7.15972656 25.09738281 -7.15972656 25.09738281 -5.625 25.125 C-4.62726563 25.14820313 -3.62953125 25.17140625 -2.6015625 25.1953125 C0.16262173 25.27216848 0.16262173 25.27216848 2 23 C2.16681109 19.91652174 2.16681109 19.91652174 2 17 C1.34 17.66 0.68 18.32 0 19 C-6.95791583 19.56112224 -6.95791583 19.56112224 -10.4375 17.6875 C-13.28375714 14.61354229 -13.4110625 11.07958731 -13.3359375 7.0078125 C-13 5 -13 5 -11 2 C-6.91355714 -0.72429524 -4.83941768 -0.55534301 0 0 Z " fill="#234B67" transform="translate(398,293)"/>
<path d="M0 0 C0.99 0 1.98 0 3 0 C3.33 0.66 3.66 1.32 4 2 C4.66 1.34 5.32 0.68 6 0 C10.80073273 -0.55090376 12.91189752 -0.70273285 17 1.9375 C19.68791205 6.05336533 19.81542001 9.2115761 19 14 C16.91891892 18.54054054 16.91891892 18.54054054 14 20 C7.46666667 20.23333333 7.46666667 20.23333333 5 19 C4.67 22.3 4.34 25.6 4 29 C2.68 29 1.36 29 0 29 C0 19.43 0 9.86 0 0 Z " fill="#3E617A" transform="translate(125,293)"/>
<path d="M0 0 C0.66 0 1.32 0 2 0 C3.32 0 4.64 0 6 0 C6 6.6 6 13.2 6 20 C4.35 19.67 2.7 19.34 1 19 C0.34 19.33 -0.32 19.66 -1 20 C-5.21416041 20.47707476 -7.32364792 20.43171409 -10.9375 18.125 C-13.82822957 13.74510672 -14.02120414 10.10602071 -13 5 C-9.39874424 -0.62696213 -6.15105321 -0.50418469 0 0 Z " fill="#2D536E" transform="translate(351,293)"/>
<path d="M0 0 C0.66 0 1.32 0 2 0 C3.32 0 4.64 0 6 0 C6 6.6 6 13.2 6 20 C4.35 19.67 2.7 19.34 1 19 C0.34 19.33 -0.32 19.66 -1 20 C-5.21416041 20.47707476 -7.32364792 20.43171409 -10.9375 18.125 C-13.82822957 13.74510672 -14.02120414 10.10602071 -13 5 C-9.39874424 -0.62696213 -6.15105321 -0.50418469 0 0 Z " fill="#2D536E" transform="translate(306,293)"/>
<path d="M0 0 C10.99462644 0.69807152 20.18509846 4.65886303 27.7265625 12.8828125 C34.44839385 21.32649228 36.14337451 29.23957541 35 40 C33.22852227 47.22877201 29.82109737 53.65760477 26 60 C25.34 59.34 24.68 58.68 24 58 C24.20496094 57.45730469 24.40992188 56.91460937 24.62109375 56.35546875 C24.89050781 55.64003906 25.15992188 54.92460937 25.4375 54.1875 C25.70433594 53.47980469 25.97117187 52.77210938 26.24609375 52.04296875 C29.43403168 43.40415249 29.6527138 30.5441336 26.046875 21.88671875 C20.44070123 11.78305482 13.00835057 6.40734661 2 3 C2 2.34 2 1.68 2 1 C1.34 0.67 0.68 0.34 0 0 Z " fill="#16C84D" transform="translate(287,159)"/>
<path d="M0 0 C2.16015625 0.546875 2.16015625 0.546875 5.22265625 3.109375 C7.45945567 7.0778901 7.81217487 9.06424697 7.16015625 13.546875 C5.5087632 17.0855744 4.44410396 18.35757653 1.16015625 20.546875 C-5.93154681 21.22227529 -5.93154681 21.22227529 -9.27734375 18.734375 C-12.15056118 14.7118706 -12.63566831 10.35927292 -11.83984375 5.546875 C-8.71013625 0.70087629 -5.53012357 -0.33236135 0 0 Z " fill="#2D536E" transform="translate(159.83984375,292.453125)"/>
<path d="M0 0 C1.88769531 0.09399414 1.88769531 0.09399414 4 1 C5.46386719 3.37670898 5.46386719 3.37670898 6.796875 6.49609375 C7.28027344 7.61177734 7.76367188 8.72746094 8.26171875 9.87695312 C8.75285156 11.05193359 9.24398437 12.22691406 9.75 13.4375 C10.25660156 14.60861328 10.76320313 15.77972656 11.28515625 16.98632812 C15 25.66264109 15 25.66264109 15 28 C14.01 28 13.02 28 12 28 C11.01 26.02 10.02 24.04 9 22 C4.05 22 -0.9 22 -6 22 C-6.99 23.98 -7.98 25.96 -9 28 C-9.99 28 -10.98 28 -12 28 C-10.01062264 21.63855262 -7.61912841 15.57125847 -4.875 9.5 C-4.51535156 8.69046875 -4.15570313 7.8809375 -3.78515625 7.046875 C-1.1381079 1.1381079 -1.1381079 1.1381079 0 0 Z " fill="#294F6B" transform="translate(106,285)"/>
<path d="M0 0 C2.4375 1.625 2.4375 1.625 4 4 C4.33 5.98 4.66 7.96 5 10 C0.05 10 -4.9 10 -10 10 C-9.01 11.98 -8.02 13.96 -7 16 C-3.37 16 0.26 16 4 16 C3 19 3 19 1 20 C-3.6707182 20.64233846 -6.9870012 20.62020335 -11.0625 18.125 C-13.79108983 13.72404866 -14.009303 10.046515 -13 5 C-9.45125094 -0.5449204 -6.11907918 -0.87415417 0 0 Z " fill="#2C526D" transform="translate(198,293)"/>
<path d="M0 0 C3.4375 1.5 3.4375 1.5 6 3 C6 3.99 6 4.98 6 6 C5.154375 5.67 4.30875 5.34 3.4375 5 C-0.25397569 3.92611616 -3.17544681 3.7058036 -7 4 C-9.28728734 5.83883881 -9.28728734 5.83883881 -9.125 8.625 C-9.08375 9.40875 -9.0425 10.1925 -9 11 C-8.18015625 11.24234375 -7.3603125 11.4846875 -6.515625 11.734375 C-5.43796875 12.06953125 -4.3603125 12.4046875 -3.25 12.75 C-2.18265625 13.07484375 -1.1153125 13.3996875 -0.015625 13.734375 C3.18813847 15.07895967 4.87967048 16.2635941 7 19 C7.0625 22.5625 7.0625 22.5625 6 26 C2.90398702 29.19921341 -0.30635541 29.2329391 -4.5625 29.375 C-8.72121837 29.40960792 -10.96120532 28.9315431 -14 26 C-14 25.34 -14 24.68 -14 24 C-13.30519531 24.16371094 -12.61039063 24.32742188 -11.89453125 24.49609375 C-8.7647184 25.04095996 -5.86201917 25.09738483 -2.6875 25.0625 C-1.61886719 25.05347656 -0.55023438 25.04445313 0.55078125 25.03515625 C1.76314453 25.01775391 1.76314453 25.01775391 3 25 C2.67 23.02 2.34 21.04 2 19 C0.75283203 18.61908203 0.75283203 18.61908203 -0.51953125 18.23046875 C-1.60621094 17.88628906 -2.69289062 17.54210937 -3.8125 17.1875 C-5.43091797 16.68283203 -5.43091797 16.68283203 -7.08203125 16.16796875 C-9.86321182 15.0547519 -11.27929337 14.41133038 -13 12 C-13.72242783 6.94300518 -13.72242783 6.94300518 -13 4 C-8.93488231 0.03403152 -5.5592945 -0.69491181 0 0 Z " fill="#315771" transform="translate(251,284)"/>
<path d="M0 0 C3 2.1875 3 2.1875 5 5 C5 6.65 5 8.3 5 10 C0.05 10 -4.9 10 -10 10 C-9.01 11.98 -8.02 13.96 -7 16 C-3.37 16 0.26 16 4 16 C3 19 3 19 1 20 C-3.37936569 20.51571681 -6.85046515 20.83341277 -10.5 18.1875 C-13.24992465 14.17719322 -13.25021716 10.75412597 -13 6 C-10.87071969 -0.06025933 -5.93772781 -1.13209596 0 0 Z " fill="#284F6B" transform="translate(275,293)"/>
<path d="M0 0 C1.32 0 2.64 0 4 0 C4.33 5.28 4.66 10.56 5 16 C6.2375 14.824375 7.475 13.64875 8.75 12.4375 C10.859375 10.43359375 10.859375 10.43359375 13 9 C14.32 9.33 15.64 9.66 17 10 C14.03 12.64 11.06 15.28 8 18 C11.22067635 21.80625387 14.40244797 25.54081536 18 29 C14.7171341 29.36795695 13.41336988 29.3231932 10.76171875 27.25 C10.07722656 26.5075 9.39273438 25.765 8.6875 25 C7.99011719 24.2575 7.29273438 23.515 6.57421875 22.75 C6.05472656 22.1725 5.53523437 21.595 5 21 C4.67 23.64 4.34 26.28 4 29 C2.68 29 1.36 29 0 29 C0 19.43 0 9.86 0 0 Z " fill="#43657D" transform="translate(207,284)"/>
<path d="M0 0 C3 1 3 1 3.94921875 2.57421875 C6.9076191 11.04244408 7.03343537 20.27590631 5 29 C3.125 28.875 3.125 28.875 1 28 C-1.27314099 22.96265621 -1.27129533 18.28200423 -1.1875 12.875 C-1.18685547 12.07707031 -1.18621094 11.27914062 -1.18554688 10.45703125 C-1.15793529 6.78162243 -0.99905453 3.5567338 0 0 Z " fill="#099434" transform="translate(242,190)"/>
<path d="M0 0 C0.99 0 1.98 0 3 0 C4.98 4.62 6.96 9.24 9 14 C10.89668064 11.15497903 12.23263478 8.42700115 13.625 5.3125 C14.07101562 4.31863281 14.51703125 3.32476562 14.9765625 2.30078125 C15.31429688 1.54152344 15.65203125 0.78226562 16 0 C16.99 0 17.98 0 19 0 C17.20893131 5.89999098 15.04424367 11.61859696 12.6875 17.3125 C12.41607178 18.00601562 12.14464355 18.69953125 11.86499023 19.4140625 C9.83985912 24.18862056 7.73840015 26.51249978 3 29 C2.34 29 1.68 29 1 29 C1 28.01 1 27.02 1 26 C1.639375 25.814375 2.27875 25.62875 2.9375 25.4375 C5.33798148 24.09682616 5.33798148 24.09682616 5.8125 20.86328125 C6.03405084 16.29841072 5.01918914 13.84972962 3.0625 9.75 C0 3.31263858 0 3.31263858 0 0 Z " fill="#2B516D" transform="translate(316,293)"/>
<path d="M0 0 C2.28734787 1.69635847 2.93394361 2.5617549 3.36328125 5.41015625 C3.34652344 6.28542969 3.32976562 7.16070312 3.3125 8.0625 C3.30863281 8.94035156 3.30476563 9.81820313 3.30078125 10.72265625 C3 13 3 13 1 15 C-2.4375 15.375 -2.4375 15.375 -6 15 C-8.85576764 12.69696158 -8.98181881 11.14544949 -9.4375 7.5 C-9 4 -9 4 -7.3125 1.5625 C-4.54994945 -0.30408821 -3.26764255 -0.58649994 0 0 Z " fill="#F5F7F8" transform="translate(350,295)"/>
<path d="M0 0 C2.28734787 1.69635847 2.93394361 2.5617549 3.36328125 5.41015625 C3.34652344 6.28542969 3.32976562 7.16070312 3.3125 8.0625 C3.30863281 8.94035156 3.30476563 9.81820313 3.30078125 10.72265625 C3 13 3 13 1 15 C-2.4375 15.375 -2.4375 15.375 -6 15 C-8.85576764 12.69696158 -8.98181881 11.14544949 -9.4375 7.5 C-9 4 -9 4 -7.3125 1.5625 C-4.54994945 -0.30408821 -3.26764255 -0.58649994 0 0 Z " fill="#F5F7F8" transform="translate(305,295)"/>
<path d="M0 0 C2.28734787 1.69635847 2.93394361 2.5617549 3.36328125 5.41015625 C3.34652344 6.28542969 3.32976562 7.16070312 3.3125 8.0625 C3.30863281 8.94035156 3.30476562 9.81820313 3.30078125 10.72265625 C3 13 3 13 1 15 C-2.4375 15.375 -2.4375 15.375 -6 15 C-8.85576764 12.69696158 -8.98181881 11.14544949 -9.4375 7.5 C-9 4 -9 4 -7.3125 1.5625 C-4.54994945 -0.30408821 -3.26764255 -0.58649994 0 0 Z " fill="#F6F7F8" transform="translate(160,295)"/>
<path d="M0 0 C3.37013879 0.67402776 4.51677007 1.7087875 6.5 4.5 C7.15454929 8.34547708 6.79284835 10.00107319 4.8125 13.375 C2.5 15.5 2.5 15.5 0 16.125 C-2.5 15.5 -2.5 15.5 -4.8125 13.375 C-6.79284835 10.00107319 -7.15454929 8.34547708 -6.5 4.5 C-4.51677007 1.7087875 -3.37013879 0.67402776 0 0 Z " fill="#F0F2F4" transform="translate(394.5,294.5)"/>
<path d="M0 0 C2.5625 0.4375 2.5625 0.4375 4.875 2 C7.19029065 5.34430872 7.06107427 7.4489058 6.5625 11.4375 C5.5 13.875 5.5 13.875 3.5625 15.4375 C0 15.875 0 15.875 -3.4375 15.4375 C-5.50270632 12.33969052 -5.73227024 11.4834519 -5.75 7.9375 C-5.76675781 7.1640625 -5.78351563 6.390625 -5.80078125 5.59375 C-5.196363 2.0062352 -3.50765392 0.62957891 0 0 Z " fill="#F6F8F9" transform="translate(134.4375,294.5625)"/>
<path d="M0 0 C1.32 0.33 2.64 0.66 4 1 C4.66 0.67 5.32 0.34 6 0 C13.40567128 -0.47020135 13.40567128 -0.47020135 15.60498047 1.26977539 C17.30379866 3.37679753 17.35323565 4.33988599 17.29296875 7.01171875 C17.28330078 7.76904297 17.27363281 8.52636719 17.26367188 9.30664062 C17.23853516 10.09232422 17.21339844 10.87800781 17.1875 11.6875 C17.16719727 12.88342773 17.16719727 12.88342773 17.14648438 14.10351562 C17.11117089 16.06929967 17.05736447 18.03473582 17 20 C16.01 20 15.02 20 14 20 C13.67 14.39 13.34 8.78 13 3 C7.51544782 2.50246742 7.51544782 2.50246742 5.16796875 4.05078125 C3.38887808 7.01989913 3.46966922 9.76121094 3.3125 13.1875 C3.24675781 14.45980469 3.18101562 15.73210937 3.11328125 17.04296875 C3.05720703 18.50669922 3.05720703 18.50669922 3 20 C2.01 20 1.02 20 0 20 C0 13.4 0 6.8 0 0 Z " fill="#234B67" transform="translate(363,293)"/>
<path d="M0 0 C0.66 0 1.32 0 2 0 C2 1.98 2 3.96 2 6 C3.98 6 5.96 6 8 6 C8 6.66 8 7.32 8 8 C6.02 8 4.04 8 2 8 C2.33 12.62 2.66 17.24 3 22 C4.65 22.33 6.3 22.66 8 23 C8 23.99 8 24.98 8 26 C2.57446809 26.36170213 2.57446809 26.36170213 0.3125 24.9375 C-1.70439276 21.96018212 -1.28491047 19.35174705 -1.1875 15.8125 C-1.16042969 14.54019531 -1.13335937 13.26789063 -1.10546875 11.95703125 C-1.07066406 10.98121094 -1.03585938 10.00539063 -1 9 C-2.32 9 -3.64 9 -5 9 C-5 8.01 -5 7.02 -5 6 C-3.68 6 -2.36 6 -1 6 C-1.020625 5.195625 -1.04125 4.39125 -1.0625 3.5625 C-1 1 -1 1 0 0 Z " fill="#224A66" transform="translate(174,287)"/>
<path d="M0 0 C0.66 0 1.32 0 2 0 C2.33 1.32 2.66 2.64 3 4 C4.65 4.33 6.3 4.66 8 5 C8 7.97 8 10.94 8 14 C7.67 14 7.34 14 7 14 C6.67 11.69 6.34 9.38 6 7 C5.01 7 4.02 7 3 7 C2.67 9.31 2.34 11.62 2 14 C-0.33294775 14.04241723 -2.66702567 14.04092937 -5 14 C-7.09688534 11.90311466 -6.87593037 7.89871765 -7 5 C-6.67 4.01 -6.34 3.02 -6 2 C-5.34 2 -4.68 2 -4 2 C-4 2.99 -4 3.98 -4 5 C-3.01 5 -2.02 5 -1 5 C-0.67 3.35 -0.34 1.7 0 0 Z " fill="#F9FAFA" transform="translate(248,328)"/>
<path d="M0 0 C3.16277272 1.58138636 3.43093689 4.32596051 4.625 7.5625 C5.07101563 8.76003906 5.51703125 9.95757812 5.9765625 11.19140625 C6.31429687 12.11824219 6.65203125 13.04507812 7 14 C3.04 14 -0.92 14 -5 14 C-4.23539233 10.17696167 -3.52385218 7.61606762 -1.9375 4.1875 C-1.39416016 3.00220703 -1.39416016 3.00220703 -0.83984375 1.79296875 C-0.56269531 1.20128906 -0.28554687 0.60960937 0 0 Z " fill="#F3F5F7" transform="translate(107,289)"/>
<path d="M0 0 C0.99 0 1.98 0 3 0 C4.33257403 19.96810934 4.33257403 19.96810934 3 29 C2.01 29 1.02 29 0 29 C0 19.43 0 9.86 0 0 Z " fill="#325771" transform="translate(207,284)"/>
<path d="M0 0 C0.99 0 1.98 0 3 0 C3 9.57 3 19.14 3 29 C2.01 29 1.02 29 0 29 C0 19.43 0 9.86 0 0 Z " fill="#244B68" transform="translate(285,284)"/>
<path d="M0 0 C1.670625 0.061875 1.670625 0.061875 3.375 0.125 C3.375 3.425 3.375 6.725 3.375 10.125 C0.735 10.125 -1.905 10.125 -4.625 10.125 C-6.00625018 7.36249964 -5.81579306 5.17768901 -5.625 2.125 C-3.625 0.125 -3.625 0.125 0 0 Z " fill="#527188" transform="translate(278.625,331.875)"/>
<path d="M0 0 C0.99 0 1.98 0 3 0 C3 0.99 3 1.98 3 3 C3.66 3 4.32 3 5 3 C4.98839844 3.75925781 4.97679687 4.51851563 4.96484375 5.30078125 C4.95582031 6.29464844 4.94679687 7.28851563 4.9375 8.3125 C4.92589844 9.29863281 4.91429687 10.28476562 4.90234375 11.30078125 C4.87670138 14.09963849 4.87670138 14.09963849 6 17 C5.01 17 4.02 17 3 17 C3 20.63 3 24.26 3 28 C2.34 28 1.68 28 1 28 C0.67 18.76 0.34 9.52 0 0 Z " fill="#204865" transform="translate(125,293)"/>
<path d="M0 0 C0.66 0.33 1.32 0.66 2 1 C1.95875 2.093125 1.9175 3.18625 1.875 4.3125 C1.67925334 8.08892229 1.67925334 8.08892229 4 11 C8.23998354 11.39259107 11.36733941 11.32490278 15 9 C14.6875 10.875 14.6875 10.875 14 13 C10.30330809 15.46446127 7.28930002 15.66587924 3 15 C0.5625 13.5625 0.5625 13.5625 -1 11 C-1.71950678 7.99939023 -2.1788173 5.08757869 -2 2 C-1.34 1.34 -0.68 0.68 0 0 Z " fill="#2A506C" transform="translate(150,298)"/>
<path d="M0 0 C1.134375 0.020625 2.26875 0.04125 3.4375 0.0625 C3.4375 3.0325 3.4375 6.0025 3.4375 9.0625 C1.10455225 9.10491723 -1.22952567 9.10342937 -3.5625 9.0625 C-4.5625 8.0625 -4.5625 8.0625 -4.6875 4.5625 C-4.52739028 0.0794279 -4.52739028 0.0794279 0 0 Z " fill="#395D76" transform="translate(230.5625,332.9375)"/>
<path d="M0 0 C2.625 0.375 2.625 0.375 5 1 C5.33 2.65 5.66 4.3 6 6 C4.35 6.33 2.7 6.66 1 7 C1.99 7.33 2.98 7.66 4 8 C4.66 8.33 5.32 8.66 6 9 C5 10 5 10 2.0625 10.25 C1.051875 10.1675 0.04125 10.085 -1 10 C-3 7 -3 7 -2.75 4.4375 C-2 2 -2 2 0 0 Z " fill="#AABAC5" transform="translate(218,332)"/>
<path d="M0 0 C0.66 0 1.32 0 2 0 C2 0.99 2 1.98 2 3 C2.99 3.33 3.98 3.66 5 4 C4.67 4.66 4.34 5.32 4 6 C3.76970044 8.37123246 3.58880058 10.74741943 3.4375 13.125 C3.35371094 14.40632813 3.26992188 15.68765625 3.18359375 17.0078125 C3.09271484 18.48894531 3.09271484 18.48894531 3 20 C2.01 20 1.02 20 0 20 C0 13.4 0 6.8 0 0 Z " fill="#184260" transform="translate(363,293)"/>
<path d="M0 0 C1.8125 1.3125 1.8125 1.3125 3 3 C3 3.99 3 4.98 3 6 C-0.96 6 -4.92 6 -9 6 C-6.68387161 0.20967903 -5.95062163 -0.58054845 0 0 Z " fill="#E5EAED" transform="translate(274,295)"/>
<path d="M0 0 C3.125 0.3125 3.125 0.3125 5 2.1875 C6.125 4.3125 6.125 4.3125 6.125 6.3125 C2.165 6.3125 -1.795 6.3125 -5.875 6.3125 C-3.50227273 0.38068182 -3.50227273 0.38068182 0 0 Z " fill="#E5EAED" transform="translate(193.875,294.6875)"/>
<path d="M0 0 C2.625 0.375 2.625 0.375 5 1 C5.33 2.65 5.66 4.3 6 6 C4.02 6 2.04 6 0 6 C0.33 6.66 0.66 7.32 1 8 C2.65 8 4.3 8 6 8 C5.67 8.66 5.34 9.32 5 10 C2.625 10.125 2.625 10.125 0 10 C-2 8 -2 8 -2.25 5 C-2 2 -2 2 0 0 Z " fill="#758E9F" transform="translate(293,332)"/>
<path d="M0 0 C0.66 0 1.32 0 2 0 C2.33 1.32 2.66 2.64 3 4 C4.65 4.33 6.3 4.66 8 5 C8 7.97 8 10.94 8 14 C7.67 14 7.34 14 7 14 C6.67 11.69 6.34 9.38 6 7 C5.01 7 4.02 7 3 7 C2.67 9.31 2.34 11.62 2 14 C1.34 14 0.68 14 0 14 C0 9.38 0 4.76 0 0 Z " fill="#4C6C83" transform="translate(248,328)"/>
<path d="M0 0 C0.33 0 0.66 0 1 0 C1 1.98 1 3.96 1 6 C3.64 6 6.28 6 9 6 C9 4.02 9 2.04 9 0 C9.66 0 10.32 0 11 0 C11 4.29 11 8.58 11 13 C10.34 13 9.68 13 9 13 C9 11.02 9 9.04 9 7 C6.36 7 3.72 7 1 7 C1 8.98 1 10.96 1 13 C0.67 13 0.34 13 0 13 C0 8.71 0 4.42 0 0 Z " fill="#375B75" transform="translate(202,329)"/>
<path d="M0 0 C3.57763189 -0.32523926 5.39542581 -0.42956587 8.375 1.6875 C10 4 10 4 10 9 C5.71 9 1.42 9 -3 9 C-3 8.67 -3 8.34 -3 8 C0.63 8 4.26 8 8 8 C6.91744593 5.44309577 6.91744593 5.44309577 5 3 C1.9042893 2.10792821 1.9042893 2.10792821 -1 2 C-0.67 1.34 -0.34 0.68 0 0 Z " fill="#1F4764" transform="translate(192,293)"/>
<path d="M0 0 C5.26053037 -0.31563182 8.44573816 0.33409063 13 3 C13 3.99 13 4.98 13 6 C12.175 5.67 11.35 5.34 10.5 5 C6.4126017 3.83217191 3.23076656 3.8541115 -1 4 C-0.67 2.68 -0.34 1.36 0 0 Z " fill="#375B75" transform="translate(244,284)"/>
<path d="M0 0 C1.67542976 0.28604898 3.34385343 0.61781233 5 1 C4.67 2.65 4.34 4.3 4 6 C2.68 6 1.36 6 0 6 C-0.38218767 4.34385343 -0.71395102 2.67542976 -1 1 C-0.67 0.67 -0.34 0.34 0 0 Z " fill="#ECEFF1" transform="translate(275,334)"/>
<path d="M0 0 C2.625 0.375 2.625 0.375 5 1 C4.67 1.66 4.34 2.32 4 3 C2.68 3 1.36 3 0 3 C0.33 4.65 0.66 6.3 1 8 C2.32 8 3.64 8 5 8 C5 8.66 5 9.32 5 10 C2.125 10.1875 2.125 10.1875 -1 10 C-3 7 -3 7 -2.75 4.4375 C-2 2 -2 2 0 0 Z " fill="#537288" transform="translate(266,332)"/>
<path d="M0 0 C1.32 0 2.64 0 4 0 C4 1.98 4 3.96 4 6 C2.0625 6.5625 2.0625 6.5625 0 7 C-1 6 -1 6 -1.125 3.5 C-1 1 -1 1 0 0 Z " fill="#EFF2F4" transform="translate(228,334)"/>
<path d="M0 0 C0.66 0.33 1.32 0.66 2 1 C1.67 1.33 1.34 1.66 1 2 C2.32 2.66 3.64 3.32 5 4 C3.35 4 1.7 4 0 4 C0 4.99 0 5.98 0 7 C2.31 7 4.62 7 7 7 C6.67 7.66 6.34 8.32 6 9 C3.125 9.1875 3.125 9.1875 0 9 C-2 6 -2 6 -1.6875 3.375 C-1 1 -1 1 0 0 Z " fill="#4C6D84" transform="translate(217,333)"/>
<path d="M0 0 C0.66 0 1.32 0 2 0 C2 0.99 2 1.98 2 3 C2.66 3.33 3.32 3.66 4 4 C3.34 4 2.68 4 2 4 C2 6.31 2 8.62 2 11 C2.66 11.33 3.32 11.66 4 12 C2.68 11.67 1.36 11.34 0 11 C-1.125 3.375 -1.125 3.375 0 0 Z " fill="#45667E" transform="translate(242,330)"/>
<path d="M0 0 C0.33 0.99 0.66 1.98 1 3 C-1.55068845 5.35448165 -2.71017358 5.98327924 -6.25 6.1875 C-7.1575 6.125625 -8.065 6.06375 -9 6 C-9 5.34 -9 4.68 -9 4 C-7.88625 3.525625 -6.7725 3.05125 -5.625 2.5625 C-3.73289006 1.74693537 -1.84287291 0.92143645 0 0 Z " fill="#1F4864" transform="translate(164,307)"/>
<path d="M0 0 C0 0.66 0 1.32 0 2 C-0.99 2.33 -1.98 2.66 -3 3 C-3.33 5.31 -3.66 7.62 -4 10 C-4.66 10 -5.32 10 -6 10 C-6 7.03 -6 4.06 -6 1 C-3 0 -3 0 0 0 Z " fill="#59778C" transform="translate(290,332)"/>
<path d="M0 0 C1.46015291 0.28241641 2.91809793 0.57626614 4.375 0.875 C5.18710937 1.03742188 5.99921875 1.19984375 6.8359375 1.3671875 C9 2 9 2 11 4 C9.741875 4.04125 8.48375 4.0825 7.1875 4.125 C6.47980469 4.14820313 5.77210938 4.17140625 5.04296875 4.1953125 C3 4 3 4 0 2 C0 1.34 0 0.68 0 0 Z " fill="#385C76" transform="translate(387,318)"/>
<path d="M0 0 C0.66 0.33 1.32 0.66 2 1 C-0.46153846 5.8 -0.46153846 5.8 -3.1875 6.8125 C-3.785625 6.874375 -4.38375 6.93625 -5 7 C-3.75023244 3.34683329 -3.32901247 2.21934164 0 0 Z " fill="#335772" transform="translate(390,293)"/>
<path d="M0 0 C2.97 0.33 5.94 0.66 9 1 C8.67 1.99 8.34 2.98 8 4 C5.03 3.505 5.03 3.505 2 3 C2 2.34 2 1.68 2 1 C1.34 0.67 0.68 0.34 0 0 Z " fill="#23CC57" transform="translate(287,159)"/>
<path d="M0 0 C1.32 0.33 2.64 0.66 4 1 C1.03 3.64 -1.94 6.28 -5 9 C-5 4.61031544 -2.87194899 3.23094261 0 0 Z " fill="#274E6A" transform="translate(220,293)"/>
<path d="M0 0 C0.66 0.33 1.32 0.66 2 1 C0.9024777 3.99324263 0.32317108 4.84610901 -2.625 6.25 C-3.40875 6.4975 -4.1925 6.745 -5 7 C-3.75023244 3.34683329 -3.32901247 2.21934164 0 0 Z " fill="#385C76" transform="translate(153,293)"/>
<path d="M0 0 C2.97 0.99 5.94 1.98 9 3 C9 3.33 9 3.66 9 4 C5.37 4.33 1.74 4.66 -2 5 C-1.34 3.35 -0.68 1.7 0 0 Z " fill="#33C25F" transform="translate(230,248)"/>
<path d="M0 0 C-0.33 0.99 -0.66 1.98 -1 3 C-3.0625 3.6875 -3.0625 3.6875 -5 4 C-5 3.34 -5 2.68 -5 2 C-6.65 2 -8.3 2 -10 2 C-10 1.67 -10 1.34 -10 1 C-3.375 0 -3.375 0 0 0 Z " fill="#45677F" transform="translate(202,309)"/>
<path d="M0 0 C-0.33 1.32 -0.66 2.64 -1 4 C-2.32 4 -3.64 4 -5 4 C-5 3.34 -5 2.68 -5 2 C-6.32 1.67 -7.64 1.34 -9 1 C-5.94152152 0.45627049 -3.11227195 0 0 0 Z " fill="#537288" transform="translate(354,309)"/>
<path d="M0 0 C-0.33 1.32 -0.66 2.64 -1 4 C-2.32 4 -3.64 4 -5 4 C-5 3.34 -5 2.68 -5 2 C-6.32 1.67 -7.64 1.34 -9 1 C-5.94152152 0.45627049 -3.11227195 0 0 0 Z " fill="#537288" transform="translate(309,309)"/>
<path d="M0 0 C0.625 1.875 0.625 1.875 1 4 C-1 6 -1 6 -4 7 C-3.39816251 4.97954558 -2.72693904 2.97888961 -2 1 C-1.34 0.67 -0.68 0.34 0 0 Z " fill="#305670" transform="translate(104,292)"/>
</svg>
